<svg width="21" height="27" viewBox="0 0 21 27" xmlns="http://www.w3.org/2000/svg"><g fill="#EEE"><path d="M20.44 11.7H17.6V8.6c0-.42-.18-.8-.45-1.06l-3.72-3c-.25-.18-.55-.3-.9-.3 0 0-4.57 0-4.63.03-.45-.06-.94.1-1.28.5L2.8 9.32l2.18 1.84 3.38-4.03h2.93L6.4 13.1c-.15.2-.22.48-.22.75v4.76H.03v2.9h7.6c.8 0 1.44-.63 1.44-1.42V15.6l4.88 5.24v5.34h2.8s.04-5.8 0-5.92c0-.37-.1-.73-.4-1.04l-4.32-4.73 2.7-3.67v2.26c0 .4.17.8.44 1.04.28.27.65.46 1.04.46h4.26v-2.9z"/><circle cx="17.61" cy="3.05" r="2.9"/></g></svg>
